# Wavefront OBJ file automatically generated by Tiled2Unity

# Vertices (Count = 36)
v 0 -0.319999992847443 0
v -0.319999992847443 -0.319999992847443 0
v -0.319999992847443 0 0
v 0 0 0
v -0.639999985694885 -0.319999992847443 0
v -0.639999985694885 0 0
v -0.959999978542328 -0.319999992847443 0
v -0.959999978542328 0 0
v -1.27999997138977 -0.319999992847443 0
v -1.27999997138977 0 0
v -1.59999990463257 -0.319999992847443 0
v -1.59999990463257 0 0
v 0 -0.639999985694885 0
v -0.319999992847443 -0.639999985694885 0
v -0.639999985694885 -0.639999985694885 0
v -0.959999978542328 -0.639999985694885 0
v -1.27999997138977 -0.639999985694885 0
v -1.59999990463257 -0.639999985694885 0
v 0 -0.959999978542328 0
v -0.319999992847443 -0.959999978542328 0
v -0.639999985694885 -0.959999978542328 0
v -0.959999978542328 -0.959999978542328 0
v -1.27999997138977 -0.959999978542328 0
v -1.59999990463257 -0.959999978542328 0
v 0 -1.27999997138977 0
v -0.319999992847443 -1.27999997138977 0
v -0.639999985694885 -1.27999997138977 0
v -0.959999978542328 -1.27999997138977 0
v -1.27999997138977 -1.27999997138977 0
v -1.59999990463257 -1.27999997138977 0
v 0 -1.59999990463257 0
v -0.319999992847443 -1.59999990463257 0
v -0.639999985694885 -1.59999990463257 0
v -0.959999978542328 -1.59999990463257 0
v -1.27999997138977 -1.59999990463257 0
v -1.59999990463257 -1.59999990463257 0

# Texture Coorindates (Count = 48)
vt 0.3334554 0.3334554
vt 0.6665446 0.3334554
vt 0.6665446 0.4998779
vt 0.3334554 0.4998779
vt 0.3334554 0.5001221
vt 0.6665446 0.5001221
vt 0.6665446 0.6665446
vt 0.3334554 0.6665446
vt 0.6667888 0.5001221
vt 0.9998779 0.5001221
vt 0.9998779 0.6665446
vt 0.6667888 0.6665446
vt 0.6667888 0.3334554
vt 0.9998779 0.3334554
vt 0.9998779 0.4998779
vt 0.6667888 0.4998779
vt 0.3334554 0.1667887
vt 0.6665446 0.1667887
vt 0.6665446 0.3332113
vt 0.3334554 0.3332113
vt 0.6667888 0.1667887
vt 0.9998779 0.1667887
vt 0.9998779 0.3332113
vt 0.6667888 0.3332113
vt 0.2501221 0.0001220703
vt 0.4998779 0.0001220703
vt 0.4998779 0.4998779
vt 0.2501221 0.4998779
vt 0.2501221 0.7501221
vt 0.3123779 0.7501221
vt 0.3123779 0.8123779
vt 0.2501221 0.8123779
vt 0.1251221 0.7501221
vt 0.1873779 0.7501221
vt 0.1873779 0.8123779
vt 0.1251221 0.8123779
vt 0.5001221 0.6667888
vt 0.9998779 0.6667888
vt 0.9998779 0.9998779
vt 0.5001221 0.9998779
vt 0.2501221 0.5001221
vt 0.4998779 0.5001221
vt 0.4998779 0.9998779
vt 0.2501221 0.9998779
vt 0.0001220703 0.0304251
vt 0.9695749 0.0304251
vt 0.9695749 0.9998779
vt 0.0001220703 0.9998779

# Normal
vn 0 0 -1

# Groups (Count = 7)
g mesh_[00]_[02]
f  1/1/1  2/2/1  3/3/1  4/4/1 
f  2/1/1  5/2/1  6/3/1  3/4/1 
f  5/1/1  7/2/1  8/3/1  6/4/1 
f  7/1/1  9/2/1  10/3/1  8/4/1 
f  9/1/1  11/2/1  12/3/1  10/4/1 
f  13/1/1  14/2/1  2/3/1  1/4/1 
f  14/1/1  15/2/1  5/3/1  2/4/1 
f  15/1/1  16/2/1  7/3/1  5/4/1 
f  16/1/1  17/2/1  9/3/1  7/4/1 
f  17/1/1  18/2/1  11/3/1  9/4/1 
f  19/1/1  20/2/1  14/3/1  13/4/1 
f  20/1/1  21/2/1  15/3/1  14/4/1 
f  21/1/1  22/2/1  16/3/1  15/4/1 
f  22/1/1  23/2/1  17/3/1  16/4/1 
f  23/1/1  24/2/1  18/3/1  17/4/1 
f  25/1/1  26/2/1  20/3/1  19/4/1 
f  26/1/1  27/2/1  21/3/1  20/4/1 
f  27/1/1  28/2/1  22/3/1  21/4/1 
f  28/1/1  29/2/1  23/3/1  22/4/1 
f  29/1/1  30/2/1  24/3/1  23/4/1 
f  31/1/1  32/2/1  26/3/1  25/4/1 
f  32/1/1  33/2/1  27/3/1  26/4/1 
f  33/1/1  34/2/1  28/3/1  27/4/1 
f  34/1/1  35/2/1  29/3/1  28/4/1 
f  35/1/1  36/2/1  30/3/1  29/4/1 
g mesh_[01]_[05]
f  13/5/1  14/6/1  2/7/1  1/8/1 
f  14/5/1  15/6/1  5/7/1  2/8/1 
f  15/5/1  16/6/1  7/7/1  5/8/1 
f  16/9/1  17/10/1  9/11/1  7/12/1 
f  19/1/1  20/2/1  14/3/1  13/4/1 
f  20/1/1  21/2/1  15/3/1  14/4/1 
f  21/1/1  22/2/1  16/3/1  15/4/1 
f  22/13/1  23/14/1  17/15/1  16/16/1 
f  25/17/1  26/18/1  20/19/1  19/20/1 
f  26/17/1  27/18/1  21/19/1  20/20/1 
f  27/17/1  28/18/1  22/19/1  21/20/1 
f  28/21/1  29/22/1  23/23/1  22/24/1 
g mesh_[02]_[03]
f  9/25/1  11/26/1  12/27/1  10/28/1 
f  17/25/1  18/26/1  11/27/1  9/28/1 
f  23/25/1  24/26/1  18/27/1  17/28/1 
f  25/41/1  26/42/1  20/43/1  19/44/1 
f  26/41/1  27/42/1  21/43/1  20/44/1 
f  27/41/1  28/42/1  22/43/1  21/44/1 
f  29/25/1  30/26/1  24/27/1  23/28/1 
f  31/25/1  32/26/1  26/27/1  25/28/1 
f  32/25/1  33/26/1  27/27/1  26/28/1 
f  33/25/1  34/26/1  28/27/1  27/28/1 
f  34/25/1  35/26/1  29/27/1  28/28/1 
f  35/25/1  36/26/1  30/27/1  29/28/1 
g mesh_[02]_[01]
f  14/29/1  15/30/1  5/31/1  2/32/1 
f  16/33/1  17/34/1  9/35/1  7/36/1 
f  28/33/1  29/34/1  23/35/1  22/36/1 
g mesh_[02]_[04]
f  22/37/1  23/38/1  17/39/1  16/40/1 
g mesh_[03]_[03]
f  1/25/1  2/26/1  3/27/1  4/28/1 
f  2/25/1  5/26/1  6/27/1  3/28/1 
f  5/25/1  7/26/1  8/27/1  6/28/1 
f  7/25/1  9/26/1  10/27/1  8/28/1 
f  9/41/1  11/42/1  12/43/1  10/44/1 
f  17/41/1  18/42/1  11/43/1  9/44/1 
f  23/41/1  24/42/1  18/43/1  17/44/1 
f  29/41/1  30/42/1  24/43/1  23/44/1 
g mesh_[04]_[00]
f  1/45/1  2/46/1  3/47/1  4/48/1 
f  2/45/1  5/46/1  6/47/1  3/48/1 
f  5/45/1  7/46/1  8/47/1  6/48/1 
f  7/45/1  9/46/1  10/47/1  8/48/1 
f  9/45/1  11/46/1  12/47/1  10/48/1 
f  16/45/1  17/46/1  9/47/1  7/48/1 
f  17/45/1  18/46/1  11/47/1  9/48/1 
f  23/45/1  24/46/1  18/47/1  17/48/1 
f  28/45/1  29/46/1  23/47/1  22/48/1 
f  29/45/1  30/46/1  24/47/1  23/48/1 
f  31/45/1  32/46/1  26/47/1  25/48/1 
f  32/45/1  33/46/1  27/47/1  26/48/1 
f  33/45/1  34/46/1  28/47/1  27/48/1 
f  34/45/1  35/46/1  29/47/1  28/48/1 
f  35/45/1  36/46/1  30/47/1  29/48/1 
