# Wavefront OBJ file automatically generated by Tiled2Unity

# Vertices (Count = 121)
v 0 -0.319999992847443 0
v -0.319999992847443 -0.319999992847443 0
v -0.319999992847443 0 0
v 0 0 0
v -0.639999985694885 -0.319999992847443 0
v -0.639999985694885 0 0
v -0.959999978542328 -0.319999992847443 0
v -0.959999978542328 0 0
v -1.27999997138977 -0.319999992847443 0
v -1.27999997138977 0 0
v -1.59999990463257 -0.319999992847443 0
v -1.59999990463257 0 0
v -1.91999995708466 -0.319999992847443 0
v -1.91999995708466 0 0
v -2.24000000953674 -0.319999992847443 0
v -2.24000000953674 0 0
v -2.55999994277954 -0.319999992847443 0
v -2.55999994277954 0 0
v -2.87999987602234 -0.319999992847443 0
v -2.87999987602234 0 0
v -3.19999980926514 -0.319999992847443 0
v -3.19999980926514 0 0
v 0 -0.639999985694885 0
v -0.319999992847443 -0.639999985694885 0
v -0.639999985694885 -0.639999985694885 0
v -0.959999978542328 -0.639999985694885 0
v -1.27999997138977 -0.639999985694885 0
v -1.59999990463257 -0.639999985694885 0
v -1.91999995708466 -0.639999985694885 0
v -2.24000000953674 -0.639999985694885 0
v -2.55999994277954 -0.639999985694885 0
v -2.87999987602234 -0.639999985694885 0
v -3.19999980926514 -0.639999985694885 0
v 0 -0.959999978542328 0
v -0.319999992847443 -0.959999978542328 0
v -0.639999985694885 -0.959999978542328 0
v -0.959999978542328 -0.959999978542328 0
v -1.27999997138977 -0.959999978542328 0
v -1.59999990463257 -0.959999978542328 0
v -1.91999995708466 -0.959999978542328 0
v -2.24000000953674 -0.959999978542328 0
v -2.55999994277954 -0.959999978542328 0
v -2.87999987602234 -0.959999978542328 0
v -3.19999980926514 -0.959999978542328 0
v 0 -1.27999997138977 0
v -0.319999992847443 -1.27999997138977 0
v -0.639999985694885 -1.27999997138977 0
v -0.959999978542328 -1.27999997138977 0
v -1.27999997138977 -1.27999997138977 0
v -1.59999990463257 -1.27999997138977 0
v -1.91999995708466 -1.27999997138977 0
v -2.24000000953674 -1.27999997138977 0
v -2.55999994277954 -1.27999997138977 0
v -2.87999987602234 -1.27999997138977 0
v -3.19999980926514 -1.27999997138977 0
v 0 -1.59999990463257 0
v -0.319999992847443 -1.59999990463257 0
v -0.639999985694885 -1.59999990463257 0
v -0.959999978542328 -1.59999990463257 0
v -1.27999997138977 -1.59999990463257 0
v -1.59999990463257 -1.59999990463257 0
v -1.91999995708466 -1.59999990463257 0
v -2.24000000953674 -1.59999990463257 0
v -2.55999994277954 -1.59999990463257 0
v -2.87999987602234 -1.59999990463257 0
v -3.19999980926514 -1.59999990463257 0
v 0 -1.91999995708466 0
v -0.319999992847443 -1.91999995708466 0
v -0.639999985694885 -1.91999995708466 0
v -0.959999978542328 -1.91999995708466 0
v -1.27999997138977 -1.91999995708466 0
v -1.59999990463257 -1.91999995708466 0
v -1.91999995708466 -1.91999995708466 0
v -2.24000000953674 -1.91999995708466 0
v -2.55999994277954 -1.91999995708466 0
v -2.87999987602234 -1.91999995708466 0
v -3.19999980926514 -1.91999995708466 0
v 0 -2.24000000953674 0
v -0.319999992847443 -2.24000000953674 0
v -0.639999985694885 -2.24000000953674 0
v -0.959999978542328 -2.24000000953674 0
v -1.27999997138977 -2.24000000953674 0
v -1.59999990463257 -2.24000000953674 0
v -1.91999995708466 -2.24000000953674 0
v -2.24000000953674 -2.24000000953674 0
v -2.55999994277954 -2.24000000953674 0
v -2.87999987602234 -2.24000000953674 0
v -3.19999980926514 -2.24000000953674 0
v 0 -2.55999994277954 0
v -0.319999992847443 -2.55999994277954 0
v -0.639999985694885 -2.55999994277954 0
v -0.959999978542328 -2.55999994277954 0
v -1.27999997138977 -2.55999994277954 0
v -1.59999990463257 -2.55999994277954 0
v -1.91999995708466 -2.55999994277954 0
v -2.24000000953674 -2.55999994277954 0
v -2.55999994277954 -2.55999994277954 0
v -2.87999987602234 -2.55999994277954 0
v -3.19999980926514 -2.55999994277954 0
v 0 -2.87999987602234 0
v -0.319999992847443 -2.87999987602234 0
v -0.639999985694885 -2.87999987602234 0
v -0.959999978542328 -2.87999987602234 0
v -1.27999997138977 -2.87999987602234 0
v -1.59999990463257 -2.87999987602234 0
v -1.91999995708466 -2.87999987602234 0
v -2.24000000953674 -2.87999987602234 0
v -2.55999994277954 -2.87999987602234 0
v -2.87999987602234 -2.87999987602234 0
v -3.19999980926514 -2.87999987602234 0
v 0 -3.19999980926514 0
v -0.319999992847443 -3.19999980926514 0
v -0.639999985694885 -3.19999980926514 0
v -0.959999978542328 -3.19999980926514 0
v -1.27999997138977 -3.19999980926514 0
v -1.59999990463257 -3.19999980926514 0
v -1.91999995708466 -3.19999980926514 0
v -2.24000000953674 -3.19999980926514 0
v -2.55999994277954 -3.19999980926514 0
v -2.87999987602234 -3.19999980926514 0
v -3.19999980926514 -3.19999980926514 0

# Texture Coorindates (Count = 82)
vt 0.3334554 0.3334554
vt 0.6665446 0.3334554
vt 0.6665446 0.4998779
vt 0.3334554 0.4998779
vt 0.3334554 0.8334554
vt 0.6665446 0.8334554
vt 0.6665446 0.9998779
vt 0.3334554 0.9998779
vt 0.3334554 0.1667887
vt 0.6665446 0.1667887
vt 0.6665446 0.3332113
vt 0.3334554 0.3332113
vt 0.6667888 0.8334554
vt 0.9998779 0.8334554
vt 0.9998779 0.9998779
vt 0.6667888 0.9998779
vt 0.6667888 0.3334554
vt 0.9998779 0.3334554
vt 0.9998779 0.4998779
vt 0.6667888 0.4998779
vt 0.0001220703 0.1667887
vt 0.3332113 0.1667887
vt 0.3332113 0.3332113
vt 0.0001220703 0.3332113
vt 0.0001220703 0.3334554
vt 0.3332113 0.3334554
vt 0.3332113 0.4998779
vt 0.0001220703 0.4998779
vt 0.3334554 0.6667888
vt 0.6665446 0.6667888
vt 0.6665446 0.8332112
vt 0.3334554 0.8332112
vt 0.6667888 0.5001221
vt 0.9998779 0.5001221
vt 0.9998779 0.6665446
vt 0.6667888 0.6665446
vt 0.0001220703 0.5001221
vt 0.3332113 0.5001221
vt 0.3332113 0.6665446
vt 0.0001220703 0.6665446
vt 0.6667888 0.6667888
vt 0.9998779 0.6667888
vt 0.9998779 0.8332112
vt 0.6667888 0.8332112
vt 0.3334554 0.5001221
vt 0.6665446 0.5001221
vt 0.6665446 0.6665446
vt 0.3334554 0.6665446
vt 0.3126221 0.1251221
vt 0.3748779 0.1251221
vt 0.3748779 0.1873779
vt 0.3126221 0.1873779
vt 0.3751221 0.1251221
vt 0.4373779 0.1251221
vt 0.4373779 0.1873779
vt 0.3751221 0.1873779
vt 0.4376221 0.1251221
vt 0.4998779 0.1251221
vt 0.4998779 0.1873779
vt 0.4376221 0.1873779
vt 0.3126221 0.1876221
vt 0.3748779 0.1876221
vt 0.3748779 0.2498779
vt 0.3126221 0.2498779
vt 0.3751221 0.1876221
vt 0.4373779 0.1876221
vt 0.4373779 0.2498779
vt 0.3751221 0.2498779
vt 0.4376221 0.1876221
vt 0.4998779 0.1876221
vt 0.4998779 0.2498779
vt 0.4376221 0.2498779
vt 0.1251221 0.8126221
vt 0.1873779 0.8126221
vt 0.1873779 0.8748779
vt 0.1251221 0.8748779
vt 0.5001221 0.6667888
vt 0.5001221 0.9998779
vt 0.0001220703 0.0304251
vt 0.9695749 0.0304251
vt 0.9695749 0.9998779
vt 0.0001220703 0.9998779

# Normal
vn 0 0 -1

# Groups (Count = 5)
g mesh_[00]_[09]
f  1/1/1  2/2/1  3/3/1  4/4/1 
f  2/1/1  5/2/1  6/3/1  3/4/1 
f  5/1/1  7/2/1  8/3/1  6/4/1 
f  7/1/1  9/2/1  10/3/1  8/4/1 
f  9/1/1  11/2/1  12/3/1  10/4/1 
f  11/1/1  13/2/1  14/3/1  12/4/1 
f  13/1/1  15/2/1  16/3/1  14/4/1 
f  15/1/1  17/2/1  18/3/1  16/4/1 
f  17/1/1  19/2/1  20/3/1  18/4/1 
f  19/1/1  21/2/1  22/3/1  20/4/1 
f  23/1/1  24/2/1  2/3/1  1/4/1 
f  24/1/1  25/2/1  5/3/1  2/4/1 
f  25/1/1  26/2/1  7/3/1  5/4/1 
f  26/1/1  27/2/1  9/3/1  7/4/1 
f  27/1/1  28/2/1  11/3/1  9/4/1 
f  28/1/1  29/2/1  13/3/1  11/4/1 
f  29/1/1  30/2/1  15/3/1  13/4/1 
f  30/1/1  31/2/1  17/3/1  15/4/1 
f  31/1/1  32/2/1  19/3/1  17/4/1 
f  32/1/1  33/2/1  21/3/1  19/4/1 
f  34/1/1  35/2/1  24/3/1  23/4/1 
f  35/1/1  36/2/1  25/3/1  24/4/1 
f  36/1/1  37/2/1  26/3/1  25/4/1 
f  37/1/1  38/2/1  27/3/1  26/4/1 
f  38/1/1  39/2/1  28/3/1  27/4/1 
f  39/1/1  40/2/1  29/3/1  28/4/1 
f  40/1/1  41/2/1  30/3/1  29/4/1 
f  41/1/1  42/2/1  31/3/1  30/4/1 
f  42/1/1  43/2/1  32/3/1  31/4/1 
f  43/1/1  44/2/1  33/3/1  32/4/1 
f  45/1/1  46/2/1  35/3/1  34/4/1 
f  46/1/1  47/2/1  36/3/1  35/4/1 
f  47/1/1  48/2/1  37/3/1  36/4/1 
f  48/1/1  49/2/1  38/3/1  37/4/1 
f  49/1/1  50/2/1  39/3/1  38/4/1 
f  50/1/1  51/2/1  40/3/1  39/4/1 
f  51/1/1  52/2/1  41/3/1  40/4/1 
f  52/1/1  53/2/1  42/3/1  41/4/1 
f  53/1/1  54/2/1  43/3/1  42/4/1 
f  54/1/1  55/2/1  44/3/1  43/4/1 
f  56/1/1  57/2/1  46/3/1  45/4/1 
f  57/1/1  58/2/1  47/3/1  46/4/1 
f  58/1/1  59/2/1  48/3/1  47/4/1 
f  59/1/1  60/2/1  49/3/1  48/4/1 
f  60/1/1  61/2/1  50/3/1  49/4/1 
f  61/1/1  62/2/1  51/3/1  50/4/1 
f  62/1/1  63/2/1  52/3/1  51/4/1 
f  63/1/1  64/2/1  53/3/1  52/4/1 
f  64/1/1  65/2/1  54/3/1  53/4/1 
f  65/1/1  66/2/1  55/3/1  54/4/1 
f  67/1/1  68/2/1  57/3/1  56/4/1 
f  68/1/1  69/2/1  58/3/1  57/4/1 
f  69/1/1  70/2/1  59/3/1  58/4/1 
f  70/1/1  71/2/1  60/3/1  59/4/1 
f  71/1/1  72/2/1  61/3/1  60/4/1 
f  72/1/1  73/2/1  62/3/1  61/4/1 
f  73/1/1  74/2/1  63/3/1  62/4/1 
f  74/1/1  75/2/1  64/3/1  63/4/1 
f  75/1/1  76/2/1  65/3/1  64/4/1 
f  76/1/1  77/2/1  66/3/1  65/4/1 
f  78/1/1  79/2/1  68/3/1  67/4/1 
f  79/1/1  80/2/1  69/3/1  68/4/1 
f  80/1/1  81/2/1  70/3/1  69/4/1 
f  81/1/1  82/2/1  71/3/1  70/4/1 
f  82/1/1  83/2/1  72/3/1  71/4/1 
f  83/1/1  84/2/1  73/3/1  72/4/1 
f  84/1/1  85/2/1  74/3/1  73/4/1 
f  85/1/1  86/2/1  75/3/1  74/4/1 
f  86/1/1  87/2/1  76/3/1  75/4/1 
f  87/1/1  88/2/1  77/3/1  76/4/1 
f  89/1/1  90/2/1  79/3/1  78/4/1 
f  90/1/1  91/2/1  80/3/1  79/4/1 
f  91/1/1  92/2/1  81/3/1  80/4/1 
f  92/1/1  93/2/1  82/3/1  81/4/1 
f  93/1/1  94/2/1  83/3/1  82/4/1 
f  94/1/1  95/2/1  84/3/1  83/4/1 
f  95/1/1  96/2/1  85/3/1  84/4/1 
f  96/1/1  97/2/1  86/3/1  85/4/1 
f  97/1/1  98/2/1  87/3/1  86/4/1 
f  98/1/1  99/2/1  88/3/1  87/4/1 
f  100/1/1  101/2/1  90/3/1  89/4/1 
f  101/1/1  102/2/1  91/3/1  90/4/1 
f  102/1/1  103/2/1  92/3/1  91/4/1 
f  103/1/1  104/2/1  93/3/1  92/4/1 
f  104/1/1  105/2/1  94/3/1  93/4/1 
f  105/1/1  106/2/1  95/3/1  94/4/1 
f  106/1/1  107/2/1  96/3/1  95/4/1 
f  107/1/1  108/2/1  97/3/1  96/4/1 
f  108/1/1  109/2/1  98/3/1  97/4/1 
f  109/1/1  110/2/1  99/3/1  98/4/1 
f  111/1/1  112/2/1  101/3/1  100/4/1 
f  112/1/1  113/2/1  102/3/1  101/4/1 
f  113/1/1  114/2/1  103/3/1  102/4/1 
f  114/1/1  115/2/1  104/3/1  103/4/1 
f  115/1/1  116/2/1  105/3/1  104/4/1 
f  116/1/1  117/2/1  106/3/1  105/4/1 
f  117/1/1  118/2/1  107/3/1  106/4/1 
f  118/1/1  119/2/1  108/3/1  107/4/1 
f  119/1/1  120/2/1  109/3/1  108/4/1 
f  120/1/1  121/2/1  110/3/1  109/4/1 
g mesh_[01]_[07]
f  1/1/1  2/2/1  3/3/1  4/4/1 
f  2/1/1  5/2/1  6/3/1  3/4/1 
f  5/1/1  7/2/1  8/3/1  6/4/1 
f  7/1/1  9/2/1  10/3/1  8/4/1 
f  9/1/1  11/2/1  12/3/1  10/4/1 
f  11/1/1  13/2/1  14/3/1  12/4/1 
f  13/1/1  15/2/1  16/3/1  14/4/1 
f  15/1/1  17/2/1  18/3/1  16/4/1 
f  17/1/1  19/2/1  20/3/1  18/4/1 
f  19/1/1  21/2/1  22/3/1  20/4/1 
f  23/1/1  24/2/1  2/3/1  1/4/1 
f  24/5/1  25/6/1  5/7/1  2/8/1 
f  25/9/1  26/10/1  7/11/1  5/12/1 
f  26/9/1  27/10/1  9/11/1  7/12/1 
f  27/9/1  28/10/1  11/11/1  9/12/1 
f  28/9/1  29/10/1  13/11/1  11/12/1 
f  29/9/1  30/10/1  15/11/1  13/12/1 
f  30/13/1  31/14/1  17/15/1  15/16/1 
f  31/1/1  32/2/1  19/3/1  17/4/1 
f  32/1/1  33/2/1  21/3/1  19/4/1 
f  34/1/1  35/2/1  24/3/1  23/4/1 
f  35/17/1  36/18/1  25/19/1  24/20/1 
f  41/21/1  42/22/1  31/23/1  30/24/1 
f  42/13/1  43/14/1  32/15/1  31/16/1 
f  43/1/1  44/2/1  33/3/1  32/4/1 
f  45/1/1  46/2/1  35/3/1  34/4/1 
f  46/17/1  47/18/1  36/19/1  35/20/1 
f  53/25/1  54/26/1  43/27/1  42/28/1 
f  54/1/1  55/2/1  44/3/1  43/4/1 
f  56/1/1  57/2/1  46/3/1  45/4/1 
f  57/17/1  58/18/1  47/19/1  46/20/1 
f  64/25/1  65/26/1  54/27/1  53/28/1 
f  65/1/1  66/2/1  55/3/1  54/4/1 
f  67/1/1  68/2/1  57/3/1  56/4/1 
f  68/29/1  69/30/1  58/31/1  57/32/1 
f  69/33/1  70/34/1  59/35/1  58/36/1 
f  75/25/1  76/26/1  65/27/1  64/28/1 
f  76/1/1  77/2/1  66/3/1  65/4/1 
f  78/1/1  79/2/1  68/3/1  67/4/1 
f  79/1/1  80/2/1  69/3/1  68/4/1 
f  80/29/1  81/30/1  70/31/1  69/32/1 
f  81/33/1  82/34/1  71/35/1  70/36/1 
f  86/25/1  87/26/1  76/27/1  75/28/1 
f  87/1/1  88/2/1  77/3/1  76/4/1 
f  89/1/1  90/2/1  79/3/1  78/4/1 
f  90/1/1  91/2/1  80/3/1  79/4/1 
f  91/1/1  92/2/1  81/3/1  80/4/1 
f  92/17/1  93/18/1  82/19/1  81/20/1 
f  96/37/1  97/38/1  86/39/1  85/40/1 
f  97/41/1  98/42/1  87/43/1  86/44/1 
f  98/1/1  99/2/1  88/3/1  87/4/1 
f  100/1/1  101/2/1  90/3/1  89/4/1 
f  101/1/1  102/2/1  91/3/1  90/4/1 
f  102/1/1  103/2/1  92/3/1  91/4/1 
f  103/29/1  104/30/1  93/31/1  92/32/1 
f  104/45/1  105/46/1  94/47/1  93/48/1 
f  105/45/1  106/46/1  95/47/1  94/48/1 
f  106/45/1  107/46/1  96/47/1  95/48/1 
f  107/41/1  108/42/1  97/43/1  96/44/1 
f  108/1/1  109/2/1  98/3/1  97/4/1 
f  109/1/1  110/2/1  99/3/1  98/4/1 
f  111/1/1  112/2/1  101/3/1  100/4/1 
f  112/1/1  113/2/1  102/3/1  101/4/1 
f  113/1/1  114/2/1  103/3/1  102/4/1 
f  114/1/1  115/2/1  104/3/1  103/4/1 
f  115/1/1  116/2/1  105/3/1  104/4/1 
f  116/1/1  117/2/1  106/3/1  105/4/1 
f  117/1/1  118/2/1  107/3/1  106/4/1 
f  118/1/1  119/2/1  108/3/1  107/4/1 
f  119/1/1  120/2/1  109/3/1  108/4/1 
f  120/1/1  121/2/1  110/3/1  109/4/1 
g mesh_[02]_[00]
f  7/49/1  9/50/1  10/51/1  8/52/1 
f  9/53/1  11/54/1  12/55/1  10/56/1 
f  11/57/1  13/58/1  14/59/1  12/60/1 
f  26/61/1  27/62/1  9/63/1  7/64/1 
f  27/65/1  28/66/1  11/67/1  9/68/1 
f  28/69/1  29/70/1  13/71/1  11/72/1 
f  59/73/1  60/74/1  49/75/1  48/76/1 
f  95/73/1  96/74/1  85/75/1  84/76/1 
g mesh_[02]_[05]
f  73/77/1  74/42/1  63/15/1  62/78/1 
g mesh_[04]_[01]
f  7/79/1  9/80/1  10/81/1  8/82/1 
f  11/79/1  13/80/1  14/81/1  12/82/1 
f  24/79/1  25/80/1  5/81/1  2/82/1 
f  25/79/1  26/80/1  7/81/1  5/82/1 
f  26/79/1  27/80/1  9/81/1  7/82/1 
f  28/79/1  29/80/1  13/81/1  11/82/1 
f  29/79/1  30/80/1  15/81/1  13/82/1 
f  30/79/1  31/80/1  17/81/1  15/82/1 
f  35/79/1  36/80/1  25/81/1  24/82/1 
f  41/79/1  42/80/1  31/81/1  30/82/1 
f  42/79/1  43/80/1  32/81/1  31/82/1 
f  46/79/1  47/80/1  36/81/1  35/82/1 
f  53/79/1  54/80/1  43/81/1  42/82/1 
f  57/79/1  58/80/1  47/81/1  46/82/1 
f  59/79/1  60/80/1  49/81/1  48/82/1 
f  64/79/1  65/80/1  54/81/1  53/82/1 
f  68/79/1  69/80/1  58/81/1  57/82/1 
f  69/79/1  70/80/1  59/81/1  58/82/1 
f  73/79/1  74/80/1  63/81/1  62/82/1 
f  75/79/1  76/80/1  65/81/1  64/82/1 
f  80/79/1  81/80/1  70/81/1  69/82/1 
f  81/79/1  82/80/1  71/81/1  70/82/1 
f  86/79/1  87/80/1  76/81/1  75/82/1 
f  92/79/1  93/80/1  82/81/1  81/82/1 
f  95/79/1  96/80/1  85/81/1  84/82/1 
f  96/79/1  97/80/1  86/81/1  85/82/1 
f  97/79/1  98/80/1  87/81/1  86/82/1 
f  103/79/1  104/80/1  93/81/1  92/82/1 
f  104/79/1  105/80/1  94/81/1  93/82/1 
f  105/79/1  106/80/1  95/81/1  94/82/1 
f  106/79/1  107/80/1  96/81/1  95/82/1 
f  107/79/1  108/80/1  97/81/1  96/82/1 
