# Wavefront OBJ file automatically generated by Tiled2Unity

# Vertices (Count = 99)
v 0 -0.319999992847443 0
v -0.319999992847443 -0.319999992847443 0
v -0.319999992847443 0 0
v 0 0 0
v -0.639999985694885 -0.319999992847443 0
v -0.639999985694885 0 0
v -0.959999978542328 -0.319999992847443 0
v -0.959999978542328 0 0
v -1.27999997138977 -0.319999992847443 0
v -1.27999997138977 0 0
v -1.59999990463257 -0.319999992847443 0
v -1.59999990463257 0 0
v -1.91999995708466 -0.319999992847443 0
v -1.91999995708466 0 0
v -2.24000000953674 -0.319999992847443 0
v -2.24000000953674 0 0
v -2.55999994277954 -0.319999992847443 0
v -2.55999994277954 0 0
v -2.87999987602234 -0.319999992847443 0
v -2.87999987602234 0 0
v -3.19999980926514 -0.319999992847443 0
v -3.19999980926514 0 0
v 0 -0.639999985694885 0
v -0.319999992847443 -0.639999985694885 0
v -0.639999985694885 -0.639999985694885 0
v -0.959999978542328 -0.639999985694885 0
v -1.27999997138977 -0.639999985694885 0
v -1.59999990463257 -0.639999985694885 0
v -1.91999995708466 -0.639999985694885 0
v -2.24000000953674 -0.639999985694885 0
v -2.55999994277954 -0.639999985694885 0
v -2.87999987602234 -0.639999985694885 0
v -3.19999980926514 -0.639999985694885 0
v 0 -0.959999978542328 0
v -0.319999992847443 -0.959999978542328 0
v -0.639999985694885 -0.959999978542328 0
v -0.959999978542328 -0.959999978542328 0
v -1.27999997138977 -0.959999978542328 0
v -1.59999990463257 -0.959999978542328 0
v -1.91999995708466 -0.959999978542328 0
v -2.24000000953674 -0.959999978542328 0
v -2.55999994277954 -0.959999978542328 0
v -2.87999987602234 -0.959999978542328 0
v -3.19999980926514 -0.959999978542328 0
v 0 -1.27999997138977 0
v -0.319999992847443 -1.27999997138977 0
v -0.639999985694885 -1.27999997138977 0
v -0.959999978542328 -1.27999997138977 0
v -1.27999997138977 -1.27999997138977 0
v -1.59999990463257 -1.27999997138977 0
v -1.91999995708466 -1.27999997138977 0
v -2.24000000953674 -1.27999997138977 0
v -2.55999994277954 -1.27999997138977 0
v -2.87999987602234 -1.27999997138977 0
v -3.19999980926514 -1.27999997138977 0
v 0 -1.59999990463257 0
v -0.319999992847443 -1.59999990463257 0
v -0.639999985694885 -1.59999990463257 0
v -0.959999978542328 -1.59999990463257 0
v -1.27999997138977 -1.59999990463257 0
v -1.59999990463257 -1.59999990463257 0
v -1.91999995708466 -1.59999990463257 0
v -2.24000000953674 -1.59999990463257 0
v -2.55999994277954 -1.59999990463257 0
v -2.87999987602234 -1.59999990463257 0
v -3.19999980926514 -1.59999990463257 0
v 0 -1.91999995708466 0
v -0.319999992847443 -1.91999995708466 0
v -0.639999985694885 -1.91999995708466 0
v -0.959999978542328 -1.91999995708466 0
v -1.27999997138977 -1.91999995708466 0
v -1.59999990463257 -1.91999995708466 0
v -1.91999995708466 -1.91999995708466 0
v -2.24000000953674 -1.91999995708466 0
v -2.55999994277954 -1.91999995708466 0
v -2.87999987602234 -1.91999995708466 0
v -3.19999980926514 -1.91999995708466 0
v 0 -2.24000000953674 0
v -0.319999992847443 -2.24000000953674 0
v -0.639999985694885 -2.24000000953674 0
v -0.959999978542328 -2.24000000953674 0
v -1.27999997138977 -2.24000000953674 0
v -1.59999990463257 -2.24000000953674 0
v -1.91999995708466 -2.24000000953674 0
v -2.24000000953674 -2.24000000953674 0
v -2.55999994277954 -2.24000000953674 0
v -2.87999987602234 -2.24000000953674 0
v -3.19999980926514 -2.24000000953674 0
v 0 -2.55999994277954 0
v -0.319999992847443 -2.55999994277954 0
v -0.639999985694885 -2.55999994277954 0
v -0.959999978542328 -2.55999994277954 0
v -1.27999997138977 -2.55999994277954 0
v -1.59999990463257 -2.55999994277954 0
v -1.91999995708466 -2.55999994277954 0
v -2.24000000953674 -2.55999994277954 0
v -2.55999994277954 -2.55999994277954 0
v -2.87999987602234 -2.55999994277954 0
v -3.19999980926514 -2.55999994277954 0

# Texture Coorindates (Count = 52)
vt 0.0001220703 0.5001221
vt 0.3332113 0.5001221
vt 0.3332113 0.6665446
vt 0.0001220703 0.6665446
vt 0.3334554 0.5001221
vt 0.6665446 0.5001221
vt 0.6665446 0.6665446
vt 0.3334554 0.6665446
vt 0.6667888 0.5001221
vt 0.9998779 0.5001221
vt 0.9998779 0.6665446
vt 0.6667888 0.6665446
vt 0.0001220703 0.3334554
vt 0.3332113 0.3334554
vt 0.3332113 0.4998779
vt 0.0001220703 0.4998779
vt 0.0001220703 0.0001220703
vt 0.3332113 0.0001220703
vt 0.3332113 0.1665446
vt 0.0001220703 0.1665446
vt 0.3334554 0.0001220703
vt 0.6665446 0.0001220703
vt 0.6665446 0.1665446
vt 0.3334554 0.1665446
vt 0.6667888 0.0001220703
vt 0.9998779 0.0001220703
vt 0.9998779 0.1665446
vt 0.6667888 0.1665446
vt 0.6667888 0.3334554
vt 0.9998779 0.3334554
vt 0.9998779 0.4998779
vt 0.6667888 0.4998779
vt 0.0001220703 0.1667887
vt 0.3332113 0.1667887
vt 0.3332113 0.3332113
vt 0.0001220703 0.3332113
vt 0.3334554 0.1667887
vt 0.6665446 0.1667887
vt 0.6665446 0.3332113
vt 0.3334554 0.3332113
vt 0.6667888 0.1667887
vt 0.9998779 0.1667887
vt 0.9998779 0.3332113
vt 0.6667888 0.3332113
vt 0.0001220703 0.8334554
vt 0.3332113 0.8334554
vt 0.3332113 0.9998779
vt 0.0001220703 0.9998779
vt 0.0001220703 0.6667888
vt 0.3332113 0.6667888
vt 0.3332113 0.8332112
vt 0.0001220703 0.8332112

# Normal
vn 0 0 -1

# Groups (Count = 2)
g mesh_[00]_[00]
f  1/1/1  2/2/1  3/3/1  4/4/1 
f  2/5/1  5/6/1  6/7/1  3/8/1 
f  5/5/1  7/6/1  8/7/1  6/8/1 
f  7/5/1  9/6/1  10/7/1  8/8/1 
f  9/5/1  11/6/1  12/7/1  10/8/1 
f  11/5/1  13/6/1  14/7/1  12/8/1 
f  13/5/1  15/6/1  16/7/1  14/8/1 
f  15/5/1  17/6/1  18/7/1  16/8/1 
f  17/5/1  19/6/1  20/7/1  18/8/1 
f  19/9/1  21/10/1  22/11/1  20/12/1 
f  23/13/1  24/14/1  2/15/1  1/16/1 
f  24/17/1  25/18/1  5/19/1  2/20/1 
f  25/21/1  26/22/1  7/23/1  5/24/1 
f  26/17/1  27/18/1  9/19/1  7/20/1 
f  27/25/1  28/26/1  11/27/1  9/28/1 
f  28/21/1  29/22/1  13/23/1  11/24/1 
f  29/25/1  30/26/1  15/27/1  13/28/1 
f  30/21/1  31/22/1  17/23/1  15/24/1 
f  31/25/1  32/26/1  19/27/1  17/28/1 
f  32/29/1  33/30/1  21/31/1  19/32/1 
f  34/13/1  35/14/1  24/15/1  23/16/1 
f  35/25/1  36/26/1  25/27/1  24/28/1 
f  36/17/1  37/18/1  26/19/1  25/20/1 
f  37/25/1  38/26/1  27/27/1  26/28/1 
f  38/17/1  39/18/1  28/19/1  27/20/1 
f  39/25/1  40/26/1  29/27/1  28/28/1 
f  40/25/1  41/26/1  30/27/1  29/28/1 
f  41/17/1  42/18/1  31/19/1  30/20/1 
f  42/25/1  43/26/1  32/27/1  31/28/1 
f  43/29/1  44/30/1  33/31/1  32/32/1 
f  45/13/1  46/14/1  35/15/1  34/16/1 
f  46/17/1  47/18/1  36/19/1  35/20/1 
f  47/25/1  48/26/1  37/27/1  36/28/1 
f  48/21/1  49/22/1  38/23/1  37/24/1 
f  49/17/1  50/18/1  39/19/1  38/20/1 
f  50/21/1  51/22/1  40/23/1  39/24/1 
f  51/21/1  52/22/1  41/23/1  40/24/1 
f  52/17/1  53/18/1  42/19/1  41/20/1 
f  53/25/1  54/26/1  43/27/1  42/28/1 
f  54/29/1  55/30/1  44/31/1  43/32/1 
f  56/13/1  57/14/1  46/15/1  45/16/1 
f  57/25/1  58/26/1  47/27/1  46/28/1 
f  58/25/1  59/26/1  48/27/1  47/28/1 
f  59/21/1  60/22/1  49/23/1  48/24/1 
f  60/25/1  61/26/1  50/27/1  49/28/1 
f  61/25/1  62/26/1  51/27/1  50/28/1 
f  62/17/1  63/18/1  52/19/1  51/20/1 
f  63/17/1  64/18/1  53/19/1  52/20/1 
f  64/25/1  65/26/1  54/27/1  53/28/1 
f  65/29/1  66/30/1  55/31/1  54/32/1 
f  67/13/1  68/14/1  57/15/1  56/16/1 
f  68/25/1  69/26/1  58/27/1  57/28/1 
f  69/21/1  70/22/1  59/23/1  58/24/1 
f  70/17/1  71/18/1  60/19/1  59/20/1 
f  71/21/1  72/22/1  61/23/1  60/24/1 
f  72/25/1  73/26/1  62/27/1  61/28/1 
f  73/25/1  74/26/1  63/27/1  62/28/1 
f  74/17/1  75/18/1  64/19/1  63/20/1 
f  75/21/1  76/22/1  65/23/1  64/24/1 
f  76/29/1  77/30/1  66/31/1  65/32/1 
f  78/13/1  79/14/1  68/15/1  67/16/1 
f  79/21/1  80/22/1  69/23/1  68/24/1 
f  80/17/1  81/18/1  70/19/1  69/20/1 
f  81/25/1  82/26/1  71/27/1  70/28/1 
f  82/25/1  83/26/1  72/27/1  71/28/1 
f  83/25/1  84/26/1  73/27/1  72/28/1 
f  84/17/1  85/18/1  74/19/1  73/20/1 
f  85/21/1  86/22/1  75/23/1  74/24/1 
f  86/17/1  87/18/1  76/19/1  75/20/1 
f  87/29/1  88/30/1  77/31/1  76/32/1 
f  89/33/1  90/34/1  79/35/1  78/36/1 
f  90/37/1  91/38/1  80/39/1  79/40/1 
f  91/37/1  92/38/1  81/39/1  80/40/1 
f  92/37/1  93/38/1  82/39/1  81/40/1 
f  93/37/1  94/38/1  83/39/1  82/40/1 
f  94/37/1  95/38/1  84/39/1  83/40/1 
f  95/37/1  96/38/1  85/39/1  84/40/1 
f  96/37/1  97/38/1  86/39/1  85/40/1 
f  97/37/1  98/38/1  87/39/1  86/40/1 
f  98/41/1  99/42/1  88/43/1  87/44/1 
g mesh_[01]_[01]
f  1/1/1  2/2/1  3/3/1  4/4/1 
f  2/5/1  5/6/1  6/7/1  3/8/1 
f  5/5/1  7/6/1  8/7/1  6/8/1 
f  7/5/1  9/6/1  10/7/1  8/8/1 
f  9/5/1  11/6/1  12/7/1  10/8/1 
f  11/5/1  13/6/1  14/7/1  12/8/1 
f  13/5/1  15/6/1  16/7/1  14/8/1 
f  15/5/1  17/6/1  18/7/1  16/8/1 
f  17/5/1  19/6/1  20/7/1  18/8/1 
f  19/9/1  21/10/1  22/11/1  20/12/1 
f  23/33/1  24/34/1  2/35/1  1/36/1 
f  24/37/1  25/38/1  5/39/1  2/40/1 
f  25/37/1  26/38/1  7/39/1  5/40/1 
f  26/37/1  27/38/1  9/39/1  7/40/1 
f  27/37/1  28/38/1  11/39/1  9/40/1 
f  28/37/1  29/38/1  13/39/1  11/40/1 
f  29/37/1  30/38/1  15/39/1  13/40/1 
f  30/37/1  31/38/1  17/39/1  15/40/1 
f  31/37/1  32/38/1  19/39/1  17/40/1 
f  32/41/1  33/42/1  21/43/1  19/44/1 
f  37/45/1  38/46/1  27/47/1  26/48/1 
f  51/49/1  52/50/1  41/51/1  40/52/1 
f  70/49/1  71/50/1  60/51/1  59/52/1 
f  72/49/1  73/50/1  62/51/1  61/52/1 
